# xmcd
#
# Track frame offsets: 
#        150
#        13941
#        31413
#        43613
#        65276
#        81276
#        99043
#        111818
#        122934
#        141041
#        154394
#        171124
#
# Disc length: 2528 seconds
#
# Revision: 0
# Processed by: cddbd v1.5.2PL0 Copyright (c) Steve Scherf et al.
# Submitted via: ExactAudioCopyFreeDBPlugin 1.0
#
DISCID=9a09de0c
DTITLE=Sherwood Fleming With The Moeller Brothers - Blues Blues Blues
DYEAR=2015
DGENRE=Blues
TTITLE0=Goin' Back Home
TTITLE1=Bold Soul Brother (Bold Soul Sister)
TTITLE2=Gotta Hold On
TTITLE3=Non Support Blues
TTITLE4=Jailbait
TTITLE5=Blues Blues
TTITLE6=History
TTITLE7=No Life For A Working Man
TTITLE8=Good Woman
TTITLE9=Lay It On The Line
TTITLE10=My Time After A While
TTITLE11=Trouble Of The World
EXTD=
EXTT0=
EXTT1=
EXTT2=
EXTT3=
EXTT4=
EXTT5=
EXTT6=
EXTT7=
EXTT8=
EXTT9=
EXTT10=
EXTT11=
PLAYORDER=
